# xmcd CD database file
#
# Track frame offsets:
#	150
#	39149
#	66735
#	107553
#	137832
#	171017
#	207100
#	242489
#	286161
#	317151
#
# Disc length: 4494 seconds
#
# Revision: 0
# Processed by: cddbd v1.5.2PL0 Copyright (c) Steve Scherf et al.
# Submitted via: CDex 1.51
#
DISCID=8a118c0a
DTITLE=Various Artist - 23rd Jazz Contest  'Jazz Hoeilaart Intern'l - 2001 Belgium
DYEAR=2001
DGENRE=Jazz
TTITLE0=Arpad 'Cumo' Olah - In Memoriam Tony Williams - Hungary
TTITLE1=Arpad 'Cumo' Olah - 7 and 6 - Hungary
TTITLE2=Arpad 'Cumo' Olah - Retrospection - Hungary
TTITLE3=U-Street-All Stars - Expander - Finland
TTITLE4=U-Street-All Stars - Lazy - Finland
TTITLE5=U-Street-All Stars - Mr Day - Finland
TTITLE6=Willow Neilson Quartet - The Void - Australia
TTITLE7=Willow Neilson Quartet - S ii - Australia
TTITLE8=Triology - Sophisticated Lady - Poland
TTITLE9=Triology - Sooky Sooky Now - Poland
EXTD=YEAR: 2001
EXTT0=
EXTT1=
EXTT2=
EXTT3=
EXTT4=
EXTT5=
EXTT6=
EXTT7=
EXTT8=
EXTT9=
PLAYORDER=
